HIERARCHY
ROOT SimulationBone
{
	OFFSET 0.000000 0.000000 0.000000
	CHANNELS 6 Xposition Yposition Zposition Zrotation Yrotation Xrotation 
	JOINT Hips
	{
		OFFSET 0.000000 0.000000 0.000000
		CHANNELS 6 Xposition Yposition Zposition Zrotation Yrotation Xrotation 
		JOINT LeftUpLeg
		{
			OFFSET 0.103454 1.857841 10.548502
			CHANNELS 3 Zrotation Yrotation Xrotation
			JOINT LeftLeg
			{
				OFFSET 43.500000 -0.000034 -0.000004
				CHANNELS 3 Zrotation Yrotation Xrotation
				JOINT LeftFoot
				{
					OFFSET 42.372192 0.000027 -0.000002
					CHANNELS 3 Zrotation Yrotation Xrotation
					JOINT LeftToe
					{
						OFFSET 17.300003 0.000001 0.000001
						CHANNELS 3 Zrotation Yrotation Xrotation
						End Site
						{
							OFFSET 0.000000 0.000000 0.000000
						}
					}
				}
			}
		}
		JOINT RightUpLeg
		{
			OFFSET 0.103461 1.857837 -10.548502
			CHANNELS 3 Zrotation Yrotation Xrotation
			JOINT RightLeg
			{
				OFFSET 43.500046 -0.000034 0.000013
				CHANNELS 3 Zrotation Yrotation Xrotation
				JOINT RightFoot
				{
					OFFSET 42.372261 0.000004 0.000013
					CHANNELS 3 Zrotation Yrotation Xrotation
					JOINT RightToe
					{
						OFFSET 17.299986 -0.000008 0.000013
						CHANNELS 3 Zrotation Yrotation Xrotation
						End Site
						{
							OFFSET 0.000000 0.000000 0.000000
						}
					}
				}
			}
		}
		JOINT Spine
		{
			OFFSET 6.901964 -2.603740 0.000003
			CHANNELS 3 Zrotation Yrotation Xrotation
			JOINT Spine1
			{
				OFFSET 12.588108 0.000020 -0.000003
				CHANNELS 3 Zrotation Yrotation Xrotation
				JOINT Spine2
				{
					OFFSET 12.343194 -0.000020 0.000000
					CHANNELS 3 Zrotation Yrotation Xrotation
					JOINT Neck
					{
						OFFSET 25.832893 -0.000004 0.000001
						CHANNELS 3 Zrotation Yrotation Xrotation
						JOINT Head
						{
							OFFSET 11.766617 0.000023 0.000000
							CHANNELS 3 Zrotation Yrotation Xrotation
							End Site
							{
								OFFSET 0.000000 0.000000 0.000000
							}
						}
					}
					JOINT LeftShoulder
					{
						OFFSET 19.745911 -1.480362 6.000106
						CHANNELS 3 Zrotation Yrotation Xrotation
						JOINT LeftArm
						{
							OFFSET 11.284124 -0.000010 -0.000029
							CHANNELS 3 Zrotation Yrotation Xrotation
							JOINT LeftForeArm
							{
								OFFSET 33.000050 0.000006 0.000043
								CHANNELS 3 Zrotation Yrotation Xrotation
								JOINT LeftHand
								{
									OFFSET 25.200006 0.000015 0.000002
									CHANNELS 3 Zrotation Yrotation Xrotation
									End Site
									{
										OFFSET 0.000000 0.000000 0.000000
									}
								}
							}
						}
					}
					JOINT RightShoulder
					{
						OFFSET 19.746103 -1.480366 -6.000076
						CHANNELS 3 Zrotation Yrotation Xrotation
						JOINT RightArm
						{
							OFFSET 11.284135 -0.000031 -0.000006
							CHANNELS 3 Zrotation Yrotation Xrotation
							JOINT RightForeArm
							{
								OFFSET 33.000095 0.000024 0.000006
								CHANNELS 3 Zrotation Yrotation Xrotation
								JOINT RightHand
								{
									OFFSET 25.199774 0.000153 0.000421
									CHANNELS 3 Zrotation Yrotation Xrotation
									End Site
									{
										OFFSET 0.000000 0.000000 0.000000
									}
								}
							}
						}
					}
				}
			}
		}
	}
}
MOTION
Frames: 10
Frame Time: 0.016667
232.510548 0.000000 -280.854727 0.000000 -66.340624 0.000000 0.973447 90.005089 1.317203 92.145230 2.527887 -179.721256 -172.838415 -10.041900 146.674063 -24.321231 3.788044 -23.328713 69.716628 7.728845 -27.913649 21.454553 0.003091 0.000000 166.902516 -0.769000 -162.635998 -30.209574 2.588389 14.939350 83.259814 -10.077401 1.856239 21.454557 -0.003115 -0.000018 5.635638 0.095792 -1.069365 1.256535 0.202476 -2.137702 0.938689 0.189690 -2.138884 -0.866757 -5.757266 -11.431523 -6.334577 14.112984 -16.292422 -175.618712 -77.527164 -5.985586 -29.124848 46.314723 14.791772 -46.023661 -16.710048 1.739737 4.806492 2.255077 24.456662 -163.174912 70.075108 18.703898 -5.117132 -61.775733 -27.195948 -26.990825 16.202204 -1.277182 12.764115 14.249438 0.610727 
232.396395 0.000000 -280.104748 0.000000 -67.923172 0.000000 1.296557 89.729425 1.503072 92.599135 3.163746 -179.794517 -173.002268 -11.494322 146.633025 -27.490479 4.442631 -23.579332 68.623213 7.208385 -29.308748 21.454551 0.003090 -0.000002 167.599024 -1.838906 -162.302335 -30.779969 2.410114 13.940660 84.137583 -9.468393 1.336498 21.454558 -0.003116 -0.000019 5.623539 0.216138 -1.070880 1.230096 0.442938 -2.139553 0.912228 0.430148 -2.142183 -0.277521 -5.711072 -11.464449 -5.993950 14.225788 -16.278145 -175.271753 -77.497025 -6.338914 -28.058885 46.860893 14.735805 -46.477759 -16.914512 1.766764 5.077825 1.909870 23.202031 -162.915449 70.078044 18.971575 -4.165884 -61.470158 -28.289016 -25.373282 15.663713 -1.214331 14.062247 12.365445 2.780905 
232.300509 0.000000 -279.323334 0.000000 -69.481494 0.000000 1.610748 89.517822 1.654129 93.085650 3.569251 -179.908622 -173.451616 -12.655695 147.618869 -31.033066 4.853704 -24.757547 66.458552 7.708834 -28.892963 21.454550 0.003091 0.000000 168.497721 -2.639200 -162.539924 -31.091218 2.552632 13.156537 85.024393 -9.013598 0.792159 21.454560 -0.003109 -0.000019 5.629382 0.297374 -1.075490 1.240252 0.605543 -2.147940 0.922370 0.592702 -2.151553 0.262659 -5.711087 -11.463187 -5.679426 14.331463 -16.240779 -174.401612 -77.258915 -7.224010 -26.865295 47.336441 14.779367 -47.066358 -17.055457 1.794379 5.059033 1.445460 22.891357 -162.702837 69.974670 19.191992 -3.135547 -60.835216 -29.635824 -24.350106 15.252280 -1.173598 14.654726 10.165541 3.619383 
232.221314 0.000000 -278.511476 0.000000 -71.018235 0.000000 1.898475 89.356529 1.766492 93.567057 3.813305 179.969749 -174.210090 -13.605629 149.192830 -34.889098 5.120750 -25.990799 63.825373 8.749135 -26.956921 21.454549 0.003092 0.000003 169.512468 -3.261870 -163.226597 -31.203981 2.890280 12.570434 85.871494 -8.690637 0.272013 21.454560 -0.003100 -0.000018 5.647905 0.351288 -1.077532 1.276287 0.713718 -2.151377 0.958396 0.700853 -2.155648 0.749696 -5.738867 -11.456966 -5.414553 14.418560 -16.206857 -173.340022 -76.911036 -8.304441 -25.585904 47.811510 14.882157 -47.725950 -17.168031 1.822450 4.852174 0.896315 23.115319 -162.393807 69.859555 19.512037 -2.078210 -60.041757 -31.104936 -23.805835 14.928584 -1.145246 14.636996 7.820073 3.266310 
232.157234 0.000000 -277.670166 0.000000 -72.535797 0.000000 2.141811 89.231796 1.837934 94.009879 3.965902 179.874742 -175.281014 -14.423295 150.910515 -38.993508 5.454793 -26.423684 61.345275 9.843341 -23.743840 21.454550 0.003093 0.000004 170.551340 -3.801612 -164.239945 -31.173737 3.293834 12.168709 86.630130 -8.479507 -0.174862 21.454560 -0.003096 -0.000018 5.673856 0.389665 -1.071373 1.327524 0.790872 -2.138490 1.009625 0.778086 -2.143229 1.179451 -5.775441 -11.474600 -5.223020 14.475898 -16.203085 -172.374890 -76.555153 -9.287586 -24.260693 48.357329 15.006796 -48.393163 -17.287436 1.851213 4.563832 0.301426 23.463684 -161.842288 69.826025 20.081395 -1.013444 -59.262920 -32.596592 -23.626632 14.652762 -1.124620 14.103325 5.458890 1.858337 
232.106697 0.000000 -276.800395 0.000000 -74.036346 0.000000 2.332190 89.140113 1.869415 94.395799 4.070742 179.822855 -176.625904 -15.162638 152.565568 -43.243563 5.942078 -25.393449 59.692552 10.479466 -19.615524 21.454552 0.003093 0.000001 171.560825 -4.331118 -165.483486 -31.019037 3.648588 11.935040 87.250964 -8.362528 -0.511096 21.454558 -0.003099 -0.000018 5.702891 0.419520 -1.050411 1.385202 0.850868 -2.096033 1.067290 0.838345 -2.101133 1.556941 -5.812154 -11.536485 -5.122435 14.498459 -16.250084 -171.697238 -76.273191 -9.978464 -22.916796 49.036780 15.141728 -49.007542 -17.441647 1.880951 4.302213 -0.322550 23.626780 -161.001027 69.936779 20.947779 0.088193 -58.615417 -34.123385 -23.715058 14.406921 -1.110513 13.147072 3.199200 -0.417347 
232.068125 0.000000 -275.903153 0.000000 -75.521826 0.000000 2.499694 89.118942 1.867684 94.752421 4.062523 179.755937 -178.081910 -15.731399 154.910643 -47.411149 5.737355 -22.847048 59.856314 10.192429 -15.651703 21.454555 0.003093 -0.000002 172.645066 -4.811909 -166.959931 -30.621226 3.906304 11.840901 87.683352 -8.324396 -0.747991 21.454557 -0.003106 -0.000018 5.734270 0.428803 -1.004161 1.448150 0.869456 -2.003191 1.130219 0.857496 -2.008401 1.923884 -5.883046 -11.630721 -5.105887 14.505367 -16.343869 -171.314845 -76.053284 -10.368390 -21.536419 49.874204 15.368291 -49.519513 -17.629591 1.910006 4.154680 -1.037541 23.703436 -160.258968 70.143533 21.710122 1.322039 -57.980381 -36.022205 -24.035991 14.261798 -1.105829 11.886247 1.206107 -3.139253 
232.039946 0.000000 -274.979433 0.000000 -76.993964 0.000000 2.670144 89.195265 1.834841 95.110202 3.882501 179.634905 -179.528540 -15.998093 158.541129 -51.377945 4.183030 -18.916894 62.364777 8.633982 -12.860048 21.454554 0.003092 -0.000001 173.904227 -5.181275 -168.647750 -29.890665 4.052966 11.847714 87.904619 -8.344487 -0.909090 21.454556 -0.003109 -0.000018 5.771150 0.407489 -0.928444 1.522831 0.826543 -1.851743 1.204877 0.815489 -1.856693 2.303913 -6.028180 -11.740342 -5.154318 14.526246 -16.477010 -171.174624 -75.852165 -10.511015 -20.108666 50.846231 15.765802 -49.882951 -17.830498 1.935150 4.164944 -1.897555 23.832820 -159.987171 70.380576 21.986816 2.690268 -57.222155 -38.479423 -24.561272 14.265819 -1.113407 10.462101 -0.337952 -5.825291 
232.020583 0.000000 -274.030225 0.000000 -78.454280 0.000000 2.811486 89.313179 1.762255 95.481471 3.610358 179.576053 178.887681 -15.935805 162.478767 -55.191606 2.390003 -14.387826 65.789611 6.357185 -10.949189 21.454551 0.003089 0.000001 175.271602 -5.421707 -170.328881 -28.988357 4.146242 11.888539 88.007130 -8.380903 -1.020592 21.454558 -0.003107 -0.000017 5.828788 0.372750 -0.848139 1.639198 0.756923 -1.691179 1.321220 0.746832 -1.695716 2.611069 -6.268724 -11.858315 -5.224762 14.609155 -16.653328 -171.107794 -75.598750 -10.578483 -18.723720 51.787340 16.285743 -50.055194 -17.973696 1.950394 4.239960 -2.852119 23.912057 -159.956732 70.595056 22.015002 3.933398 -56.420895 -40.921670 -25.226917 14.289996 -1.126027 9.230999 -1.259757 -7.928693 
232.008461 0.000000 -273.056520 0.000000 -79.904095 0.000000 2.889591 89.412395 1.648079 95.861225 3.337714 179.685690 176.995929 -15.572429 165.681853 -58.753366 1.459876 -10.235962 68.543846 4.105119 -9.383461 21.454548 0.003084 0.000003 176.650219 -5.547760 -171.789345 -28.085633 4.238337 11.897012 88.087069 -8.390444 -1.106624 21.454561 -0.003099 -0.000016 5.916638 0.342800 -0.784559 1.815724 0.697346 -1.563865 1.497722 0.688034 -1.568057 2.760739 -6.603965 -11.984111 -5.274340 14.788690 -16.877242 -170.919063 -75.269030 -10.770518 -17.506805 52.580023 16.830643 -50.002496 -18.001105 1.950613 4.289413 -3.813581 23.855815 -159.848628 70.749210 22.124077 4.880575 -55.716289 -42.821870 -25.975061 14.223077 -1.134808 8.488074 -1.446013 -9.057325 
